<svg width="37" height="36" viewBox="0 0 37 36" fill="none" xmlns="http://www.w3.org/2000/svg">
<g clip-path="url(#clip0_155_17)">
<path fill-rule="evenodd" clip-rule="evenodd" d="M18.4449 0C8.24534 0 0 8.25 0 18.4564C0 26.6149 5.28307 33.5209 12.6121 35.9651C13.5284 36.1489 13.8641 35.568 13.8641 35.0794C13.8641 34.6515 13.8338 33.1849 13.8338 31.6567C8.70293 32.757 7.63446 29.4566 7.63446 29.4566C6.80989 27.3176 5.58813 26.7679 5.58813 26.7679C3.90879 25.6372 5.71046 25.6372 5.71046 25.6372C7.5733 25.7595 8.55078 27.5317 8.55078 27.5317C10.1995 30.3428 12.8564 29.5485 13.9252 29.0595C14.0777 27.8677 14.5667 27.0427 15.0858 26.5845C10.9935 26.1566 6.68794 24.5678 6.68794 17.4784C6.68794 15.4616 7.42039 13.8116 8.58098 12.5284C8.39787 12.0701 7.75641 10.1753 8.76447 7.63912C8.76447 7.63912 10.3219 7.15013 13.8335 9.53362C15.3369 9.12962 16.8874 8.9241 18.4449 8.92237C20.0023 8.92237 21.5899 9.1365 23.0559 9.53362C26.5679 7.15013 28.1253 7.63912 28.1253 7.63912C29.1333 10.1753 28.4915 12.0701 28.3084 12.5284C29.4996 13.8116 30.2018 15.4616 30.2018 17.4784C30.2018 24.5678 25.8962 26.1259 21.7734 26.5845C22.4454 27.165 23.0253 28.2649 23.0253 30.0067C23.0253 32.4818 22.9951 34.4681 22.9951 35.079C22.9951 35.568 23.3311 36.1489 24.2471 35.9655C31.5761 33.5205 36.8592 26.6149 36.8592 18.4564C36.8894 8.25 28.6138 0 18.4449 0Z" fill="#24292F"/>
</g>
<defs>
<clipPath id="clip0_155_17">
<rect width="37" height="36" fill="white"/>
</clipPath>
</defs>
</svg>
